<?xml version="1.0" encoding="UTF-8"?>
<svg xmlns="http://www.w3.org/2000/svg" width="1400" height="820" viewBox="0 0 1400 820">
  <rect width="1400" height="820" fill="#fffaf5"/>
  <rect x="34" y="30" width="1332" height="760" rx="40" fill="#fff7ed" stroke="#f97316" stroke-width="3"/>
  <text x="700" y="110" fill="#7c2d12" font-size="42" font-family="Inter, Segoe UI, Arial, sans-serif" font-weight="800" text-anchor="middle">Temperature and Internal Energy</text>
  <text x="700" y="154" fill="#7c2d12" font-size="22" font-family="Inter, Segoe UI, Arial, sans-serif" font-weight="500" text-anchor="middle">Same average particle motion can still belong to very different total energy stores.</text>

  <rect x="120" y="210" width="480" height="360" rx="32" fill="#ffffff" stroke="#fb923c" stroke-width="3"/>
  <text x="360" y="254" fill="#9a3412" font-size="30" font-family="Inter, Segoe UI, Arial, sans-serif" font-weight="800" text-anchor="middle">Sample A</text>
  <rect x="170" y="290" width="380" height="190" rx="28" fill="#ffedd5" stroke="#fdba74" stroke-width="2"/>
  <circle cx="230" cy="350" r="16" fill="#f97316"/>
  <circle cx="320" cy="404" r="16" fill="#f97316"/>
  <circle cx="416" cy="334" r="16" fill="#f97316"/>
  <circle cx="500" cy="414" r="16" fill="#f97316"/>
  <line x1="250" y1="350" x2="290" y2="334" stroke="#ea580c" stroke-width="6" stroke-linecap="round"/>
  <line x1="340" y1="404" x2="380" y2="388" stroke="#ea580c" stroke-width="6" stroke-linecap="round"/>
  <line x1="436" y1="334" x2="476" y2="318" stroke="#ea580c" stroke-width="6" stroke-linecap="round"/>
  <line x1="520" y1="414" x2="560" y2="398" stroke="#ea580c" stroke-width="6" stroke-linecap="round"/>
  <rect x="188" y="510" width="120" height="28" rx="14" fill="#fb923c"/>
  <rect x="324" y="510" width="120" height="28" rx="14" fill="#fdba74"/>
  <text x="248" y="530" fill="#7c2d12" font-size="18" font-family="Inter, Segoe UI, Arial, sans-serif" font-weight="700" text-anchor="middle">same T</text>
  <text x="384" y="530" fill="#7c2d12" font-size="18" font-family="Inter, Segoe UI, Arial, sans-serif" font-weight="700" text-anchor="middle">smaller U</text>

  <rect x="800" y="210" width="480" height="360" rx="32" fill="#ffffff" stroke="#fb923c" stroke-width="3"/>
  <text x="1040" y="254" fill="#9a3412" font-size="30" font-family="Inter, Segoe UI, Arial, sans-serif" font-weight="800" text-anchor="middle">Sample B</text>
  <rect x="850" y="290" width="380" height="190" rx="28" fill="#ffedd5" stroke="#fdba74" stroke-width="2"/>
  <circle cx="900" cy="338" r="16" fill="#f97316"/>
  <circle cx="970" cy="394" r="16" fill="#f97316"/>
  <circle cx="1038" cy="330" r="16" fill="#f97316"/>
  <circle cx="1104" cy="402" r="16" fill="#f97316"/>
  <circle cx="1172" cy="346" r="16" fill="#f97316"/>
  <circle cx="930" cy="442" r="16" fill="#f97316"/>
  <circle cx="1008" cy="444" r="16" fill="#f97316"/>
  <circle cx="1090" cy="450" r="16" fill="#f97316"/>
  <line x1="920" y1="338" x2="960" y2="322" stroke="#ea580c" stroke-width="6" stroke-linecap="round"/>
  <line x1="990" y1="394" x2="1030" y2="378" stroke="#ea580c" stroke-width="6" stroke-linecap="round"/>
  <line x1="1058" y1="330" x2="1098" y2="314" stroke="#ea580c" stroke-width="6" stroke-linecap="round"/>
  <line x1="1124" y1="402" x2="1164" y2="386" stroke="#ea580c" stroke-width="6" stroke-linecap="round"/>
  <line x1="1192" y1="346" x2="1232" y2="330" stroke="#ea580c" stroke-width="6" stroke-linecap="round"/>
  <line x1="950" y1="442" x2="990" y2="426" stroke="#ea580c" stroke-width="6" stroke-linecap="round"/>
  <line x1="1028" y1="444" x2="1068" y2="428" stroke="#ea580c" stroke-width="6" stroke-linecap="round"/>
  <line x1="1110" y1="450" x2="1150" y2="434" stroke="#ea580c" stroke-width="6" stroke-linecap="round"/>
  <rect x="868" y="510" width="120" height="28" rx="14" fill="#fb923c"/>
  <rect x="1004" y="510" width="180" height="28" rx="14" fill="#fdba74"/>
  <text x="928" y="530" fill="#7c2d12" font-size="18" font-family="Inter, Segoe UI, Arial, sans-serif" font-weight="700" text-anchor="middle">same T</text>
  <text x="1094" y="530" fill="#7c2d12" font-size="18" font-family="Inter, Segoe UI, Arial, sans-serif" font-weight="700" text-anchor="middle">larger total U</text>

  <text x="700" y="660" fill="#7c2d12" font-size="28" font-family="Inter, Segoe UI, Arial, sans-serif" font-weight="800" text-anchor="middle">Temperature is an average-per-particle story. Internal energy belongs to the whole sample.</text>
</svg>
