<svg width="1200" height="760" viewBox="0 0 1200 760" fill="none" xmlns="http://www.w3.org/2000/svg">
  <rect width="1200" height="760" rx="40" fill="#F8FBFF"/>
  <rect x="28" y="28" width="1144" height="704" rx="34" fill="#FFFFFF" stroke="#D7E6F8" stroke-width="4"/>
  <text x="72" y="100" fill="#0F172A" font-family="Arial, Helvetica, sans-serif" font-size="34" font-weight="700">
    Heating changes motion, not particle size
  </text>
  <text x="72" y="146" fill="#475569" font-family="Arial, Helvetica, sans-serif" font-size="22">
    <tspan x="72" dy="0">Pulse-Plaza rule: the micro-pucks stay the same size</tspan>
    <tspan x="72" dy="28">while motion and spacing patterns change.</tspan>
  </text>

  <rect x="74" y="196" width="452" height="354" rx="28" fill="#E0F2FE" stroke="#38BDF8" stroke-width="5"/>
  <rect x="674" y="196" width="452" height="354" rx="28" fill="#FCE7F3" stroke="#F472B6" stroke-width="5"/>
  <text x="114" y="248" fill="#0369A1" font-family="Arial, Helvetica, sans-serif" font-size="30" font-weight="700">Lower pulse</text>
  <text x="714" y="248" fill="#BE185D" font-family="Arial, Helvetica, sans-serif" font-size="30" font-weight="700">Higher pulse</text>

  <g fill="#38BDF8">
    <circle cx="154" cy="324" r="16"/>
    <circle cx="214" cy="324" r="16"/>
    <circle cx="274" cy="324" r="16"/>
    <circle cx="334" cy="324" r="16"/>
    <circle cx="394" cy="324" r="16"/>
    <circle cx="184" cy="388" r="16"/>
    <circle cx="244" cy="388" r="16"/>
    <circle cx="304" cy="388" r="16"/>
    <circle cx="364" cy="388" r="16"/>
    <circle cx="424" cy="388" r="16"/>
    <circle cx="154" cy="452" r="16"/>
    <circle cx="214" cy="452" r="16"/>
    <circle cx="274" cy="452" r="16"/>
    <circle cx="334" cy="452" r="16"/>
    <circle cx="394" cy="452" r="16"/>
  </g>

  <g fill="#F472B6">
    <circle cx="754" cy="324" r="16"/>
    <circle cx="814" cy="324" r="16"/>
    <circle cx="874" cy="324" r="16"/>
    <circle cx="934" cy="324" r="16"/>
    <circle cx="994" cy="324" r="16"/>
    <circle cx="784" cy="388" r="16"/>
    <circle cx="844" cy="388" r="16"/>
    <circle cx="904" cy="388" r="16"/>
    <circle cx="964" cy="388" r="16"/>
    <circle cx="1024" cy="388" r="16"/>
    <circle cx="754" cy="452" r="16"/>
    <circle cx="814" cy="452" r="16"/>
    <circle cx="874" cy="452" r="16"/>
    <circle cx="934" cy="452" r="16"/>
    <circle cx="994" cy="452" r="16"/>
  </g>

  <g stroke="#0369A1" stroke-width="5" stroke-linecap="round">
    <path d="M145 292L154 304L163 292"/>
    <path d="M265 292L274 304L283 292"/>
    <path d="M385 292L394 304L403 292"/>
    <path d="M175 418L184 430L193 418"/>
    <path d="M325 418L334 430L343 418"/>
    <path d="M145 484L154 496L163 484"/>
    <path d="M385 484L394 496L403 484"/>
  </g>

  <g stroke="#BE185D" stroke-width="5" stroke-linecap="round">
    <path d="M734 304L754 286L774 304"/>
    <path d="M804 302L814 280L824 302"/>
    <path d="M864 306L874 284L884 306"/>
    <path d="M924 304L934 282L944 304"/>
    <path d="M984 306L994 284L1004 306"/>
    <path d="M764 410L784 392L804 410"/>
    <path d="M884 412L904 394L924 412"/>
    <path d="M954 410L964 388L974 410"/>
    <path d="M734 496L754 478L774 496"/>
    <path d="M924 494L934 472L944 494"/>
  </g>

  <rect x="96" y="570" width="1008" height="124" rx="24" fill="#EEF4FF"/>
  <text x="128" y="614" fill="#1E3A8A" font-family="Arial, Helvetica, sans-serif" font-size="28" font-weight="700">
    Particle-size rule
  </text>
  <text x="128" y="654" fill="#334155" font-family="Arial, Helvetica, sans-serif" font-size="24">
    <tspan x="128" dy="0">The circles keep the same diameter in both panels.</tspan>
    <tspan x="128" dy="30">Only the motion level and arrangement pattern change.</tspan>
  </text>
</svg>
