<svg xmlns="http://www.w3.org/2000/svg" width="1280" height="720" viewBox="0 0 1280 720"><rect width="100%" height="100%" fill="#0b1020" /><text x="640.00" y="65.00" fill="white" text-anchor="middle" font-size="34" font-family="Arial" font-weight="bold">Resistance and I-V Graph Reasoning</text><text x="640.00" y="100.00" fill="#cbd5e1" text-anchor="middle" font-size="18" font-family="Arial" font-weight="normal">A steeper straight I-V line means more current per volt and therefore lower resistance.</text><rect x="110.00" y="150.00" width="1080.00" height="460.00" fill="#111827" stroke="#334155" stroke-width="2" rx="18" /><line x1="110.00" y1="150.00" x2="110.00" y2="610.00" stroke="#1f2937" stroke-width="1" /><text x="110.00" y="640.00" fill="#94a3b8" text-anchor="middle" font-size="14" font-family="Arial" font-weight="normal">0.00</text><line x1="326.00" y1="150.00" x2="326.00" y2="610.00" stroke="#1f2937" stroke-width="1" /><text x="326.00" y="640.00" fill="#94a3b8" text-anchor="middle" font-size="14" font-family="Arial" font-weight="normal">1.60</text><line x1="542.00" y1="150.00" x2="542.00" y2="610.00" stroke="#1f2937" stroke-width="1" /><text x="542.00" y="640.00" fill="#94a3b8" text-anchor="middle" font-size="14" font-family="Arial" font-weight="normal">3.20</text><line x1="758.00" y1="150.00" x2="758.00" y2="610.00" stroke="#1f2937" stroke-width="1" /><text x="758.00" y="640.00" fill="#94a3b8" text-anchor="middle" font-size="14" font-family="Arial" font-weight="normal">4.80</text><line x1="974.00" y1="150.00" x2="974.00" y2="610.00" stroke="#1f2937" stroke-width="1" /><text x="974.00" y="640.00" fill="#94a3b8" text-anchor="middle" font-size="14" font-family="Arial" font-weight="normal">6.40</text><line x1="1190.00" y1="150.00" x2="1190.00" y2="610.00" stroke="#1f2937" stroke-width="1" /><text x="1190.00" y="640.00" fill="#94a3b8" text-anchor="middle" font-size="14" font-family="Arial" font-weight="normal">8.00</text><line x1="110.00" y1="150.00" x2="1190.00" y2="150.00" stroke="#1f2937" stroke-width="1" /><text x="94.00" y="155.00" fill="#94a3b8" text-anchor="end" font-size="14" font-family="Arial" font-weight="normal">4.50</text><line x1="110.00" y1="242.00" x2="1190.00" y2="242.00" stroke="#1f2937" stroke-width="1" /><text x="94.00" y="247.00" fill="#94a3b8" text-anchor="end" font-size="14" font-family="Arial" font-weight="normal">3.60</text><line x1="110.00" y1="334.00" x2="1190.00" y2="334.00" stroke="#1f2937" stroke-width="1" /><text x="94.00" y="339.00" fill="#94a3b8" text-anchor="end" font-size="14" font-family="Arial" font-weight="normal">2.70</text><line x1="110.00" y1="426.00" x2="1190.00" y2="426.00" stroke="#1f2937" stroke-width="1" /><text x="94.00" y="431.00" fill="#94a3b8" text-anchor="end" font-size="14" font-family="Arial" font-weight="normal">1.80</text><line x1="110.00" y1="518.00" x2="1190.00" y2="518.00" stroke="#1f2937" stroke-width="1" /><text x="94.00" y="523.00" fill="#94a3b8" text-anchor="end" font-size="14" font-family="Arial" font-weight="normal">0.90</text><line x1="110.00" y1="610.00" x2="1190.00" y2="610.00" stroke="#1f2937" stroke-width="1" /><text x="94.00" y="615.00" fill="#94a3b8" text-anchor="end" font-size="14" font-family="Arial" font-weight="normal">0.00</text><line x1="110.00" y1="150.00" x2="110.00" y2="610.00" stroke="#64748b" stroke-width="3" /><line x1="110.00" y1="610.00" x2="1190.00" y2="610.00" stroke="#64748b" stroke-width="3" /><text x="650.00" y="692.00" fill="#e2e8f0" text-anchor="middle" font-size="20" font-family="Arial" font-weight="normal">Voltage (V)</text><text x="34.00" y="380.00" fill="#e2e8f0" text-anchor="middle" font-size="20" font-family="Arial" font-weight="normal" transform="rotate(-90.00 34.00 380.00)">Current (A)</text><polyline points="110.00,610.00 380.00,466.89 650.00,323.78 920.00,180.67" fill="none" stroke="#38bdf8" stroke-width="4" /><circle cx="920.00" cy="180.67" r="4.00" fill="#38bdf8" stroke="#38bdf8" stroke-width="0" /><polyline points="110.00,610.00 380.00,528.22 650.00,446.44 920.00,364.67" fill="none" stroke="#f97316" stroke-width="4" /><circle cx="920.00" cy="364.67" r="4.00" fill="#f97316" stroke="#f97316" stroke-width="0" /><text x="758.00" y="252.22" fill="#86efac" text-anchor="start" font-size="16" font-family="Arial" font-weight="normal">steeper = lower R</text><rect x="980.00" y="170.00" width="190" height="100.00" fill="#0f172a" stroke="#334155" stroke-width="2" rx="16" /><line x1="998.00" y1="190.00" x2="1038.00" y2="190.00" stroke="#38bdf8" stroke-width="4" /><text x="1050.00" y="196.00" fill="#e2e8f0" text-anchor="start" font-size="16" font-family="Arial" font-weight="normal">Line A: lower resistance</text><line x1="998.00" y1="224.00" x2="1038.00" y2="224.00" stroke="#f97316" stroke-width="4" /><text x="1050.00" y="230.00" fill="#e2e8f0" text-anchor="start" font-size="16" font-family="Arial" font-weight="normal">Line B: higher resistance</text></svg>